# xmcd
#
# Track frame offsets:
#	182
#	12560
#	24835
#	36760
#	52727
#	63987
#	76042
#	90340
#	105135
#	119907
#	131105
#	142092
#	152492
#	167585
#	179135
#	195310
#	208482
#	214362
#	225045
#	237635
#
# Disc length: 3328
#
# Revision: 4
# Processed by: cddbd v1.5.1PL0 Copyright (c) Steve Scherf et al.
# Submitted via: CDex 1.51
# Normalized: r2:DSETVAR1,TDELIM( - ),TSWAP
#
DISCID=0b0cfe14
DTITLE=Various Artist - Country Ladies
DYEAR=1990
DGENRE=Country
TTITLE0=Patty Loveless - Lonely Days, Lonely Nights
TTITLE1=Lynn Anderson - Rose Garden
TTITLE2=Connie Smith - Once A Day
TTITLE3=Sylvia - Nobody
TTITLE4=Kathy Mattea - Street Talk
TTITLE5=Sweethearts Of The Rodeo - Hey, Doll Baby
TTITLE6=Forester Sisters - I Fell In Love Again Last Night
TTITLE7=Jeannie C Riley - Harper Valley PTA
TTITLE8=Tanya Tucker - What's Your Mama's Name
TTITLE9=Tammy Wynette - D.I.V.O.R.C.E.
TTITLE10=Dottie West - A Lesson in Leavin'
TTITLE11=Gail Davies - I'll Be There
TTITLE12=Barbara Fairchild - Rocky Top
TTITLE13=Helen Cornelius - Fools
TTITLE14=Lorrie Morgan - You're Gettin' To Me Again
TTITLE15=Tanya Tucker - San Antonio Stroll
TTITLE16=Tammy Wynette - Singing My Song
TTITLE17=Lynn Anderson - I've Never Loved Anyone More
TTITLE18=Dottie West - Here Comes My Baby Back Again
TTITLE19=Forester Sisters - Dixie Man
EXTD=YEAR: 1990
EXTT0=
EXTT1=
EXTT2=
EXTT3=
EXTT4=
EXTT5=
EXTT6=
EXTT7=
EXTT8=
EXTT9=
EXTT10=
EXTT11=
EXTT12=
EXTT13=
EXTT14=
EXTT15=
EXTT16=
EXTT17=
EXTT18=
EXTT19=
PLAYORDER=
